<svg width="61" height="61" viewBox="0 0 61 61" fill="none" xmlns="http://www.w3.org/2000/svg">
<path d="M51.7049 9.28538C63.4187 20.9992 63.4187 39.9911 51.7049 51.7049C39.9911 63.4188 20.9992 63.4188 9.28538 51.7049C-2.42846 39.9911 -2.42846 20.9992 9.28538 9.28538C20.9992 -2.42846 39.9911 -2.42846 51.7049 9.28538Z" fill="white" stroke="#B4CBD4"/>
<path fill-rule="evenodd" clip-rule="evenodd" d="M43.0876 41.4823L45.0847 38.1034L43.5331 38.7337L44.1756 36.776L43.1392 37.17C43.8816 33.494 42.527 30.8121 40.4451 28.4756C41.0512 31.5939 41.2997 34.3547 40.9603 36.5245C40.9087 30.2545 38.7996 22.7662 31.4052 19.4236C32.0507 21.2328 32.5205 23.136 32.6508 25.2148C29.9021 18.2509 29.5294 15.9689 23.5927 13.584L25.605 17.9296C25.0958 17.1175 24.4655 16.4659 24.0322 15.7659C21.8593 12.2687 14.5226 13.2446 13.6498 17.3114C13.5165 17.9357 13.5256 18.563 13.6468 19.1903C15.1438 25.033 20.338 27.6059 28.6051 27.4574C27.305 28.2756 22.9806 28.1938 18.3682 26.9513C21.8108 29.7908 24.4716 32.9213 29.2718 34.8517C28.6021 35.1275 27.3414 35.1941 26.2444 35.285C29.0445 37.57 33.1417 38.8973 38.1904 39.4125C37.5722 40.0732 35.7812 39.758 33.9205 40.3004L38.7935 41.3611L37.3813 41.9672L40.7178 41.549C39.1117 38.1518 37.3389 34.9153 35.257 31.9728C30.1506 24.7603 23.5352 19.7691 14.965 17.2932C15.7621 17.269 16.5409 17.3448 17.3015 17.4932C20.0835 18.0327 23.117 19.7206 25.4716 21.2389C29.8961 24.0936 33.2781 27.5574 36.3297 31.8485C40.3996 37.573 42.1755 42.0642 44.0453 48.7069L45.4575 48.9069C45.2029 46.422 43.9634 44.0037 43.0876 41.4823Z" fill="#D90429"/>
</svg>
