<svg width="61" height="61" viewBox="0 0 61 61" fill="none" xmlns="http://www.w3.org/2000/svg">
<g clip-path="url(#clip0)">
<path d="M52.0608 52.0631C63.9699 40.154 63.9699 20.8455 52.0608 8.93642C40.1517 -2.97268 20.8433 -2.97268 8.93418 8.93642C-2.97492 20.8455 -2.97492 40.154 8.93418 52.0631C20.8433 63.9722 40.1517 63.9722 52.0608 52.0631Z" fill="white"/>
<path fill-rule="evenodd" clip-rule="evenodd" d="M43.09 41.4869L45.0871 38.108L43.5355 38.7383L44.178 36.7806L43.1416 37.1746C43.884 33.4986 42.5294 30.8167 40.4475 28.4802C41.0536 31.5985 41.3021 34.3593 40.9627 36.5291C40.9111 30.2591 38.802 22.7708 31.4076 19.4282C32.0531 21.2374 32.5229 23.1406 32.6532 25.2194C29.9045 18.2555 29.5318 15.9735 23.5951 13.5886L25.6074 17.9342C25.0982 17.1221 24.4679 16.4705 24.0346 15.7705C21.8617 12.2733 14.525 13.2492 13.6522 17.316C13.5189 17.9403 13.528 18.5676 13.6492 19.1949C15.1462 25.0376 20.3404 27.6105 28.6075 27.462C27.3074 28.2802 22.983 28.1984 18.3706 26.9559C21.8132 29.7954 24.474 32.9259 29.2742 34.8563C28.6045 35.1321 27.3438 35.1987 26.2468 35.2896C29.0469 37.5746 33.1441 38.9019 38.1928 39.4171C37.5746 40.0778 35.7836 39.7626 33.9229 40.305L38.7959 41.3657L37.3837 41.9718L40.7202 41.5536C39.1141 38.1564 37.3413 34.9199 35.2594 31.9774C30.153 24.7649 23.5376 19.7737 14.9674 17.2978C15.7645 17.2736 16.5433 17.3494 17.3039 17.4978C20.0859 18.0373 23.1194 19.7252 25.474 21.2435C29.8985 24.0982 33.2805 27.562 36.3321 31.8531C40.402 37.5776 42.1779 42.0688 44.0477 48.7115L45.4599 48.9115C45.2053 46.4266 43.9658 44.0083 43.09 41.4869Z" fill="#D90429"/>
</g>
<defs>
<clipPath id="clip0">
<rect width="61" height="61" fill="white"/>
</clipPath>
</defs>
</svg>
